<svg style="height:25px;width:25px;" class="icon-svg" viewBox="0 0 1024 1024" version="1.1" xmlns="http://www.w3.org/2000/svg" p-id="1912" width="25" height="25"><path d="M444.3275 127.4853125c-8.0915625-15.8925-26.2565625-23.8875-43.4409375-19.12125-65.686875 18.2203125-124.8421875 52.0321875-173.26875 97.15125-12.1021875 11.27625-15.3871875 29.150625-8.0840625 43.993125 5.038125 10.2375 7.888125 21.781875 7.888125 34.1025 0 42.7078125-34.5309375 77.2003125-76.96875 77.2003125-0.3571875 0-0.714375-0.0028125-1.070625-0.0075-16.5853125-0.2371875-31.3575 10.4503125-36.31875 26.2790625C100.5865625 426.8834375 93.875 469.1975 93.875 513.010625c0 28.91625 2.923125 57.1884375 8.503125 84.52125 3.84375 18.826875 21.294375 31.7025 40.4165625 29.82a77.8771875 77.8771875 0 0 1 7.6584375-0.3740625c42.4378125 0 76.96875 34.4915625 76.96875 77.199375 0 19.00875-6.800625 36.31875-18.125625 49.768125-12.3534375 14.6709375-11.6465625 36.298125 1.63875 50.13 49.445625 51.48375 111.9403125 90.3909375 182.2275 111.36 19.5825 5.8415625 40.235625-5.07 46.4465625-24.538125 9.9525-31.1953125 39.106875-53.63625 73.3284375-53.63625s63.3759375 22.4409375 73.3284375 53.63625c6.2109375 19.468125 26.8640625 30.3796875 46.4465625 24.538125 70.2871875-20.9690625 132.781875-59.87625 182.2275-111.36 13.284375-13.8328125 13.99125-35.4590625 1.63875-50.1290625-11.325-13.449375-18.125625-30.7603125-18.125625-49.7690625 0-42.706875 34.531875-77.199375 76.96875-77.199375 2.5996875 0 5.1525 0.1265625 7.6584375 0.3740625 19.1221875 1.8825 36.5728125-10.993125 40.4165625-29.82 5.5790625-27.3328125 8.503125-55.605 8.503125-84.52125 0-43.813125-6.7125-86.1271875-19.18875-125.9278125-4.96125-15.82875-19.7334375-26.5171875-36.3196875-26.2790625-0.3553125 0.0046875-0.7125 0.0075-1.0696875 0.0075-42.436875 0-76.96875-34.4925-76.96875-77.2003125 0-12.320625 2.85-23.865 7.888125-34.1025 7.303125-14.8425 4.018125-32.716875-8.0840625-43.993125-48.4265625-45.1190625-107.581875-78.9309375-173.26875-97.15125-17.184375-4.76625-35.349375 3.22875-43.4409375 19.12125-12.795 25.130625-38.7721875 42.159375-68.61 42.159375-29.8378125 0-55.815-17.02875-68.61-42.159375zM302.421875 283.6109375c0-13.5665625-1.78125-26.7515625-5.128125-39.315 29.169375-23.548125 62.2284375-42.405 98.04-55.45875 27.830625 34.0171875 70.14375 55.8075 117.60375 55.8075 47.46 0 89.773125-21.7903125 117.60375-55.8075 35.8115625 13.05375 68.870625 31.910625 98.04 55.45875a152.57625 152.57625 0 0 0-5.128125 39.315c0 74.5434375 53.5434375 136.66125 124.31625 149.6878125 6.031875 25.5571875 9.230625 52.2403125 9.230625 79.711875 0 13.6696875-0.7921875 27.1415625-2.3296875 40.3734375-74.1646875 10.138125-131.2171875 73.8459375-131.2171875 150.793125 0 24.526875 5.8134375 47.739375 16.126875 68.2875-28.9021875 25.38375-62.0596875 45.9778125-98.236875 60.57375-26.9221875-42.5034375-74.3165625-70.7775-128.405625-70.7775-54.0890625 0-101.4834375 28.2740625-128.405625 70.7775-36.1771875-14.5959375-69.3346875-35.19-98.2378125-60.57375 10.314375-20.548125 16.1278125-43.760625 16.1278125-68.2875 0-76.9471875-57.0525-140.655-131.2171875-150.793125A349.6940625 349.6940625 0 0 1 168.875 513.010625c0-27.4725 3.1978125-54.1546875 9.2296875-79.711875 70.77375-13.025625 124.3171875-75.144375 124.3171875-149.6878125zM512.9375 347c-91.126875 0-165 73.873125-165 165s73.873125 165 165 165 165-73.873125 165-165-73.873125-165-165-165zM415.4375 512c0-53.848125 43.651875-97.5 97.5-97.5s97.5 43.651875 97.5 97.5-43.651875 97.5-97.5 97.5-97.5-43.651875-97.5-97.5z" fill="#262626" p-id="1913"></path></svg>