<svg t="1770782127357" class="icon" viewBox="0 0 1807 1024" version="1.1" xmlns="http://www.w3.org/2000/svg" p-id="12101" width="200" height="200"><path d="M237.332105 895.557351c-0.82531 7.897756-7.985636 13.640536-16.001839 12.83051C213.310243 907.577835 207.479582 900.520672 208.304892 892.622917 209.130202 884.72134 216.290528 878.982381 224.306731 879.792407c8.012382 0.810026 13.846863 7.87101 13.025374 15.764944" fill="#E4E6EF" p-id="12102"></path><path d="M331.042969 842.924751c-0.829131 7.939785-8.050591 13.716954-16.127928 12.903106-8.081158-0.813847-13.96149-7.91686-13.132359-15.856645 0.832951-7.939785 8.054412-13.716954 16.131749-12.899285 8.081158 0.813847 13.957669 7.909218 13.128538 15.852824M141.168237 837.667222c-0.82531 7.943606-8.050591 13.716954-16.131748 12.903107-8.077337-0.813847-13.957669-7.909218-13.128539-15.852825 0.829131-7.939785 8.054412-13.716954 16.131749-12.903106 8.081158 0.813847 13.96149 7.913039 13.128538 15.856645" fill="#E4E6EF" p-id="12103"></path><path d="M413.764987 875.872186c-0.901727 8.520559-8.715424 14.714203-17.461415 13.843042-8.749812-0.878802-15.111574-8.489992-14.213667-17.010551C382.987811 864.184119 390.805328 857.986654 399.551319 858.853993c8.745991 0.878802 15.107753 8.493813 14.213668 17.014372" fill="#E4E6EF" p-id="12104"></path><path d="M223.015274 895.324278l-0.359163-0.221611-94.78071-59.02493 0.756534-1.199756 94.421547 58.803319 95.636587-53.293612 0.317133 0.122268 81.64453 31.904335-0.515819 1.314382-81.335038-31.782067z" fill="#E4E6EF" p-id="12105"></path><path d="M499.310634 282.306366l-33.482358 104.867829h20.243014l33.482357-104.867829z" fill="#CED0DB" p-id="12106"></path><path d="M451.5764 294.605773H415.973454a1.937185 1.937185 0 0 0-1.948648 1.933365v78.186635c0 1.069846 0.874981 1.933364 1.948648 1.933364h35.606766c1.077488 0 1.948648-0.867339 1.948648-1.933364v-11.741559a1.937185 1.937185 0 0 0-1.948648-1.933365H429.736259V310.214062h21.840141c1.077488 0 1.948648-0.863519 1.948648-1.929544V296.539138A1.937185 1.937185 0 0 0 451.572579 294.605773" fill="#E4E6EF" p-id="12107"></path><path d="M570.780164 294.605773H535.169577A1.937185 1.937185 0 0 0 533.22475 296.539138V308.284518c0 1.066025 0.87116 1.929544 1.948648 1.929544h21.840141V361.050849H535.169577a1.937185 1.937185 0 0 0-1.944827 1.933365v11.741559c0 1.069846 0.87116 1.933364 1.948648 1.933364h35.606766c1.069846 0 1.944827-0.867339 1.944827-1.933364V296.539138A1.937185 1.937185 0 0 0 570.776343 294.605773" fill="#E4E6EF" p-id="12108"></path><path d="M1088.952411 248.361682a145.19338 145.19338 0 1 0 290.38676 0c0-80.188775-65.004604-145.19338-145.19338-145.19338s-145.19338 65.004604-145.19338 145.19338z" fill="#E5ECFF" p-id="12109"></path><path d="M1199.414006 345.373785c-41.425964-20.766474-100.095552-17.297117-62.119841-96.981536 13.239344-27.831278-11.741559-41.532948-40.92925-45.881108A145.285081 145.285081 0 0 0 1088.952411 248.392249c0 77.346042 60.167372 140.524266 136.069122 145.162813 1.375516-15.711452-2.120588-36.393867-25.603706-48.181277z m89.729509-107.343758s17.239803 20.766474-10.366043 27.701368c-27.605847 6.938715-44.84565 20.770295-37.975711 48.471664s0 27.701369 37.975711 24.235832c37.97189-3.465537 48.295903-38.109441 48.295903-45.002306 0-6.934894 10.369864-45.002306-10.366043-55.406558-20.693877-10.404252-24.147952-17.342967-27.563817 0z" fill="#5B79FB" p-id="12110"></path><path d="M1424.933713 222.200127c-2.636406-18.676454-24.828068-32.072453-64.152549-38.793378h-0.084059a143.435776 143.435776 0 0 1 7.271132 15.337006c25.787108 5.647258 41.750738 14.878501 43.252343 25.351528 1.673545 11.707171-14.458204 26.83785-43.168284 40.482207-31.847022 15.168887-75.523483 27.128237-122.955867 33.681043-47.436206 6.552806-92.740361 6.881402-127.598235 0.947578-31.388516-5.360692-51.15392-15.543333-52.785435-27.208475-1.211218-8.616081 7.229102-19.085288 23.280612-29.474256-0.084059-0.126089-0.210148-0.206327-0.294208-0.290387 0.378267-5.731318 1.127159-11.336546 2.17408-16.819507-27.79307 15.417244-41.208174 32.072453-38.869796 48.521335 2.636406 18.672633 24.828068 32.072453 64.152548 38.793379 17.304758 2.926793 36.986103 4.409294 58.138486 4.409293 23.192732 0 48.185098-1.772888 73.723849-5.276633 48.811722-6.762955 93.90955-19.127317 127.051849-34.915187 35.900974-17.151923 53.492298-36.069092 50.863534-54.745546z" fill="#FF7E71" p-id="12111"></path><path d="M1238.153892 103.3326a192.713645 192.713645 0 0 0-6.938715-0.164298A144.773083 144.773083 0 0 0 1108.056803 171.370982c22.180199-0.244536 40.665609-10.537983 45.900213-24.407771a123.911087 123.911087 0 0 0 11.837081 0.573131c24.633203 0 46.480986-7.160326 60.270536-18.229411 3.78267 2.838913 9.30766 4.607979 15.451632 4.60798 0.252178 0 0.458505 0 0.664833-0.038209 2.242856 10.69846 12.295587 40.459282 54.248832 39.431465 0 0 25.546393-0.618982 37.425504 50.626639 0 0 26.627702 10.537983 34.021101-24.201444-18.817826-54.126564-69.410077-93.56185-129.722643-96.400762z" fill="#A4BEFF" p-id="12112"></path><path d="M1207.399642 187.227627c0 4.095982 2.911509 7.878651 7.641757 9.926642a19.780688 19.780688 0 0 0 15.283514 0c4.730247-2.047991 7.641757-5.83066 7.641756-9.926642 0-4.095982-2.911509-7.878651-7.641756-9.926642a19.780688 19.780688 0 0 0-15.283514 0c-4.730247 2.047991-7.641757 5.83066-7.641757 9.926642z" fill="#83A4FF" p-id="12113"></path><path d="M1250.19348 188.958485c2.502675 1.581844 5.398901 2.346019 7.592086 2.013603 2.197005-0.336237 3.362373-1.723216 3.056702-3.641297-0.30567-1.918081-2.032707-4.073056-4.535382-5.6549-3.866729-2.445362-8.367724-2.796883-10.060373-0.787101-1.685007 2.009782 0.080238 5.624333 3.946967 8.069695z" fill="#A4BEFF" p-id="12114"></path><path d="M1379.339171 0.004585C1316.031036 0.004585 1264.712818 51.322803 1264.712818 114.630937c0 63.304314 51.318218 114.626352 114.626353 114.626353 63.308134 0 114.626352-51.322039 114.626352-114.626353C1493.965523 51.322803 1442.647305 0.004585 1379.339171 0.004585" fill="#FA4B50" p-id="12115"></path><path d="M1382.258322 149.691318h-4.225892A6.315912 6.315912 0 0 1 1371.697414 143.390689V63.614569c0-3.476999 2.835092-6.296808 6.335016-6.296808h4.225892c3.496104 0 6.335016 2.819808 6.335016 6.296808v79.779941c0 3.476999-2.838913 6.296808-6.335016 6.296808M1382.258322 175.508993h-4.225892A6.315912 6.315912 0 0 1 1371.697414 169.212186v-4.202967c0-3.476999 2.835092-6.296808 6.335016-6.296807h4.225892c3.496104 0 6.335016 2.819808 6.335016 6.300628v4.199146c0 3.476999-2.838913 6.296808-6.335016 6.296807" fill="#FFFFFF" p-id="12116"></path><path d="M653.758181 772.433365l204.951918 0.760355c76.692672 59.861702 82.607391 174.575935 82.607391 174.575935l-0.466147 0.210148c2.005961 16.410673 3.866729 35.591482 5.597587 56.911984H578.368429c1.513068-20.946055 3.140762-40.256775 4.883082-57.431623 2.292527-114.133459 70.506669-175.022978 70.50667-175.022978z" fill="#CCD7EE" p-id="12117"></path><path d="M877.336881 531.068476c-68.752886 118.416664-159.422331 72.550839-187.104595 44.559084-31.350307-31.701828-67.81295-25.236902-81.499336-65.50514-15.654139-46.068331 18.195023-78.213381 9.934283-98.727677-25.920839-79.692061 33.409761-54.164772 21.427487-103.65279-20.021403-82.699092-7.106834-81.866141 24.724904-143.565685 37.97189-73.59776 85.033649-43.416641 85.033649-43.416642s61.355666-18.913348 94.413906 63.136195c5.979675 14.836471 27.063282 22.6196 29.879269 60.759609 7.194714 97.180222 60.213223 101.612441 74.721098 167.312445 15.142141 68.584768-48.842289 78.450276-71.526844 119.104422" fill="#253368" p-id="12118"></path><path d="M835.26901 260.57703c2.323094-24.281682-15.294976-20.525759-15.294976-20.525759s-7.053342 25.538751-6.442001 45.812333c25.126096-1.30674 21.740798-25.286573 21.740798-25.286574M663.146079 271.237281c-5.288096-23.815535 17.614249-22.569929 17.61425-22.569929s10.13297 24.484189 12.024304 44.66989c-25.095529 1.803455-29.638554-22.099961-29.638554-22.099961M759.172395 433.525271c-22.073215 1.367874-40.849011-15.917779-46.297583-37.746458l-1.906619-85.415737 75.920854-4.69968 8.623723 84.999261c2.235214 22.023543-14.274802 41.49474-36.344196 42.862614" fill="#F4B784" p-id="12119"></path><path d="M818.930934 256.717943c-2.747212 54.134205-25.198693 89.164019-62.929868 91.506217-37.738816 2.330736-66.605553-35.27817-73.716207-83.042971-11.894395-79.856359 24.254936-104.52395 61.989931-106.862328 37.731174-2.334557 78.86293 15.696169 74.659965 98.399082" fill="#FFC999" p-id="12120"></path><path d="M823.405182 193.600853c-10.373685-31.957827-28.190441-63.663476-75.08026-52.349856-59.07078-27.181729-139.271018 107.955099-85.572393 110.259089 50.519654 2.17408 42.285661-36.802701 51.306755-63.285209 8.291306-24.338995 27.900054 1.077488 27.900054 1.077487s9.227421-11.78741 20.644206-8.287485c19.127317 5.857407 1.176831 44.310727 50.019119 64.649263 5.945287 2.47975 2.968823 35.129156 4.802845 32.40487 8.551126-12.673854 16.35336-52.517974 5.979674-84.468159" fill="#253368" p-id="12121"></path><path d="M825.235383 278.290623a1.429009 1.429009 0 0 0-2.743391 0.229252c-2.548526 12.44078-8.218709 45.873466 4.600338 45.858183 14.458204-0.019104 2.82745-33.833878-1.860768-46.087435M680.519613 287.254403a1.429009 1.429009 0 0 0-2.735749 0.229253c-2.552347 12.44078-8.22253 45.869645 4.596517 45.854362 14.462025-0.019104 2.82745-33.830057-1.860768-46.083615" fill="#FFFFFF" p-id="12122"></path><path d="M581.440415 756.129677c-22.940554-3.973714-38.468604-27.036536-35.392797-52.563824l21.962409-211.523829c4.095982-34.001997 24.858635-59.494898 52.082394-53.068181 30.204044 5.234603 41.54059 42.767092 34.594233 75.897929l-22.09996 202.842793c-5.345409 25.477617-27.919159 42.438497-51.146279 38.415112" fill="#FFC999" p-id="12123"></path><path d="M648.175877 607.130702l-91.403053-23.639774 6.824089-88.178232c11.806514-56.388524 38.873617-56.59103 73.85758-64.144907l39.465853-3.431149c32.897763 5.077947 9.131899 46.576508 3.48082 79.4246l-32.225289 99.969462z" fill="#597EF7" p-id="12124"></path><path d="M1092.307143 349.393349c-13.162926-20.273581-41.093547-17.518728-63.33106-4.661472l-181.617814 88.606171c-29.62327 17.117535-39.851762 56.449658-22.31393 83.455626 17.331504 26.692657 56.610135 22.871778 84.250369 3.385298l160.660296-97.103804c51.226517-41.036234 22.352139-73.681819 22.352139-73.681819" fill="#FFC999" p-id="12125"></path><path d="M964.246582 489.290991l-33.065882-97.929114-107.106864 36.374763c-30.727504 12.811405-50.278939 79.741732-31.701828 105.341618l-7.668503 0.320954c13.334866 30.53646 73.849938 8.963781 104.103653-4.936575l75.439424-39.171646z" fill="#597EF7" p-id="12126"></path><path d="M652.741827 774.343804l206.65603-1.146263-9.112795-30.559386-187.062565 0.21779z" fill="#CCD7EE" p-id="12127"></path><path d="M853.880509 417.943729c-12.574511 1.398441-33.593163 5.662542-46.10654-5.593766-7.397221-6.663612-6.980745-27.517966-6.980745-27.517967l-94.383339-0.30567s0.263641 24.724904-7.13358 31.388516c-12.517198 11.26395-45.174245 11.118756-65.199469 18.026905-35.006888 12.073976-25.584602 78.068188-10.683176 118.172127 3.450253 9.269451-2.495034 26.746149 3.26303 39.633972 5.792452 12.975703 14.595756 28.679513 18.088039 37.077804 11.477919 27.57528 9.120437 57.28643 16.52912 82.305542 0 0-11.802693 22.852674 6.820268 32.129767h178.847676c22.333034-10.209387 6.824089-32.129767 6.824089-32.129767 7.068625-23.88049 2.777779-43.130076 13.250807-78.106397 2.101483-6.996028 9.980134-18.080397 16.693417-32.878658 10.480669-23.085747 8.027666-45.155141 6.984566-50.829146-10.270521-55.830675-1.448113-135.308767-36.814163-131.373262" fill="#597EF7" p-id="12128"></path><path d="M608.408175 945.947096c-13.090329-44.016519-53.507581-159.575166-62.578347-222.321632 0 0-7.779308-36.260136 41.211995-42.67157 47.772443-6.250957 49.595002 60.85513 49.595002 60.855131 7.530951 75.282767 19.601106 158.577917 25.030574 200.443281 0 0 1.979215 22.566108-20.785578 30.700758-27.01361 9.647718-32.477467-27.005969-32.477467-27.005968" fill="#FFC999" p-id="12129"></path><path d="M666.458781 942.554156s20.499013 29.09981 30.991144 55.563214l4.909829 6.778238h-98.647439c0.030567-6.858477 0.122268-13.850684 0.114627-20.739728 0 0 4.764635-56.510792 27.028894-59.743255 19.31454-2.800704 35.602945 18.141531 35.602945 18.141531zM903.525182 232.382768l-44.425353-30.849772s-20.4417-53.580178-31.063742-62.035782c-10.622042-8.455604-24.659949-7.060983-36.40533-12.57069-11.741559-5.505886-9.311481 7.603548 5.333947 15.230022 14.653069 7.630294 20.670952 6.896686 24.018041 22.035005 3.343269 15.13832-0.106985 73.85758 21.435128 83.784222 7.618832 7.248206 10.751952 7.790771 15.443991 12.016663 10.239954 9.212138 26.367882 8.096441 34.731785-2.858017 0.198686-0.25982 0.405013-0.531102 0.603698-0.802385 8.635185-11.653679 23.05518-17.014372 10.327835-23.949266" fill="#FFC999" p-id="12130"></path><path d="M854.923608 257.455373l25.256007-40.424894 197.268131 117.553145c21.121816 12.589794 27.884771 41.10501 14.844113 62.605093-13.044479 21.500083-44.299264 27.586742-64.198399 12.983345L854.923608 257.455373z" fill="#FFC999" p-id="12131"></path><path d="M1406.406273 871.317699h-46.358717V710.879014c0-12.769376 10.320193-23.120135 23.059001-23.120135h0.240715c12.734988 0 23.059001 10.354581 23.059001 23.120135v160.434864z" fill="#5BA02E" p-id="12132"></path><path d="M1430.703239 910.321225H1383.962434V826.078498a22.650167 22.650167 0 0 1 22.66545-22.634884h1.402263a22.650167 22.650167 0 0 1 22.669271 22.634884v84.238907zM1361.167073 870.526777h-46.736985v-91.059175c0-12.501914 10.106223-22.634884 22.57375-22.634883h1.585664c12.471347 0 22.577571 10.13297 22.577571 22.634883v91.059175z" fill="#92C110" p-id="12133"></path><path d="M1308.194415 1004.895608c-5.024455 0-9.093691-3.874371-9.093691-8.658111v-120.235401c0-4.78374 4.069236-8.65811 9.093691-8.658111h127.005998c5.024455 0 9.093691 3.874371 9.093691 8.658111v120.235401c0 4.78374-4.069236 8.65811-9.093691 8.658111h-127.005998z" fill="#CAD5EE" p-id="12134"></path><path d="M1375.984439 722.723737c0 2.514138-2.040349 4.546845-4.558307 4.546845s-4.558308-2.032707-4.558308-4.546845c0-2.510317 2.040349-4.546845 4.558308-4.546845 2.52178 0 4.558308 2.036528 4.558307 4.546845M1399.926064 769.338454c0 2.514138-2.04417 4.546845-4.562129 4.546845-2.517959 0-4.558308-2.032707-4.558308-4.546845 0-2.510317 2.040349-4.546845 4.558308-4.546846 2.52178 0 4.562129 2.036528 4.562129 4.546846" fill="#92C110" p-id="12135"></path><path d="M1329.247455 792.076501c0 2.514138-2.040349 4.546845-4.558308 4.546845-2.52178 0-4.558308-2.032707-4.558308-4.546845 0-2.510317 2.040349-4.546845 4.558308-4.546845 2.52178 0 4.558308 2.036528 4.558308 4.546845M1352.046636 838.691218c0 2.514138-2.040349 4.546845-4.558308 4.546845-2.52178 0-4.562129-2.032707-4.562129-4.546845 0-2.510317 2.04417-4.546845 4.562129-4.546846 2.517959 0 4.558308 2.036528 4.558308 4.546846" fill="#5BA02E" p-id="12136"></path><path d="M1526.634034 623.659822l112.926061-0.049671a17.381176 17.381176 0 0 0 17.365893-17.392639 17.377355 17.377355 0 0 0-17.377356-17.373534l-112.933703 0.049672a17.381176 17.381176 0 0 0-17.365892 17.392638 17.377355 17.377355 0 0 0 17.384997 17.373534" fill="#E4E6EF" p-id="12137"></path><path d="M1569.538677 691.915994l113.040688-0.04585c9.601867-0.003821 17.384997-7.764025 17.384997-17.323863-0.007642-9.559838-7.794592-17.308579-17.396459-17.300937l-113.044509 0.04585c-9.605688 0.003821-17.388818 7.756383-17.384997 17.320042 0.003821 9.559838 7.794592 17.308579 17.40028 17.308579" fill="#E4E6EF" p-id="12138"></path><path d="M1579.209321 623.862329v-0.007642l59.502539-0.026746c-9.556017 0.003821-17.293296 7.695249-17.285654 17.178669 0 9.479599 7.748741 17.167207 17.297117 17.163386l-59.50254 0.022926c9.48342-0.08788 17.144281-7.744921 17.13664-17.17867 0-9.429928-7.668503-17.075506-17.151923-17.155744" fill="#E4E6EF" p-id="12139"></path><path d="M133.732808 1004.895608h1673.544745v3.820878H133.732808z" fill="#E5E3EA" p-id="12140"></path></svg>